<?xml version="1.0" standalone="no"?>
<!DOCTYPE svg PUBLIC "-//W3C//DTD SVG 20010904//EN"
 "http://www.w3.org/TR/2001/REC-SVG-20010904/DTD/svg10.dtd">
<svg version="1.0" xmlns="http://www.w3.org/2000/svg"
 width="300.000000pt" height="206.000000pt" viewBox="0 0 300.000000 206.000000"
 preserveAspectRatio="xMidYMid meet">
<metadata>
Created by potrace 1.10, written by Peter Selinger 2001-2011
</metadata>
<g transform="translate(0.000000,206.000000) scale(0.100000,-0.100000)"
fill="#000000" stroke="none">
<path d="M760 1870 l0 -60 -317 -2 -318 -3 -3 -92 -3 -93 321 0 320 0 0 -75 0
-75 479 0 479 0 4 -35 4 -35 -483 0 -483 0 0 -57 0 -58 -232 0 -233 0 -3 -92
-3 -93 235 0 235 0 3 -82 3 -83 701 0 701 0 -27 -33 -27 -33 -677 1 -676 1 0
-66 0 -65 -285 0 -285 0 0 -95 0 -95 285 0 285 0 0 -75 0 -76 225 3 226 3 -6
-23 c-3 -12 -1 -22 4 -22 5 0 11 9 13 21 3 19 10 21 121 22 l117 2 0 -27 c0
-15 5 -30 10 -33 6 -4 10 7 10 27 l0 33 97 -2 c98 -1 98 -2 125 -34 32 -38 48
-35 18 4 -11 14 -20 27 -20 29 0 1 179 2 397 1 l398 -2 6 -43 6 -43 1 43 2 42
175 0 175 0 0 235 0 236 -364 -3 -364 -3 31 39 30 38 331 -3 331 -4 3 233 2
232 -200 0 -200 0 0 35 0 35 200 0 200 0 0 230 0 230 -1050 0 -1050 0 0 -60z
m2080 -175 l0 -215 -190 0 -190 0 0 35 c0 32 3 35 28 35 15 0 33 5 40 12 17
17 17 259 0 276 -17 17 -419 17 -436 0 -17 -17 -17 -262 1 -276 6 -6 24 -12
39 -14 l28 -3 -26 -32 c-24 -31 -29 -33 -91 -33 -61 0 -74 4 -169 56 l-104 55
0 118 c0 78 -4 121 -12 129 -9 9 -72 12 -224 12 -184 0 -213 -2 -218 -16 -12
-30 -7 -259 6 -272 9 -9 68 -12 205 -12 l193 0 0 -35 0 -35 -470 0 -470 0 0
70 0 70 140 0 140 0 0 95 0 95 -140 0 -140 0 0 50 0 50 1030 0 1030 0 0 -215z
m-1086 129 c12 -30 7 -239 -6 -252 -17 -17 -399 -17 -416 0 -13 13 -18 249 -5
261 3 4 100 7 214 7 179 0 208 -2 213 -16z m774 -113 c2 -82 -1 -128 -9 -137
-15 -19 -398 -21 -417 -2 -13 13 -18 222 -6 252 6 14 31 16 218 14 l211 -3 3
-124z m-1480 2 l-3 -78 -452 -3 -453 -2 0 80 0 80 455 0 456 0 -3 -77z m803
-183 c40 -23 75 -43 78 -45 2 -3 -39 -5 -92 -5 l-97 0 0 39 c0 35 8 47 31 50
3 1 39 -17 80 -39z m589 -15 l0 -35 -156 0 -155 0 27 35 26 35 129 0 129 0 0
-35z m-430 -72 c27 -16 50 -31 50 -35 0 -5 -72 -8 -160 -8 l-160 0 0 35 0 35
110 0 c101 0 114 -2 160 -27z m78 7 c-16 -25 -20 -25 -60 0 l-33 20 53 0 c50
0 52 -1 40 -20z m352 -15 l0 -35 -159 0 c-196 0 -216 6 -174 52 14 16 34 18
175 18 l158 0 0 -35z m-275 -80 c39 -21 89 -48 113 -62 23 -14 42 -20 42 -14
0 5 -38 31 -85 56 -77 42 -110 67 -68 51 9 -4 164 -7 345 -6 l328 0 0 -215 0
-215 -316 0 c-207 0 -313 3 -309 10 3 6 2 10 -4 10 -5 0 -13 -4 -16 -10 -4 -7
-252 -10 -711 -10 l-704 0 0 75 0 75 140 0 140 0 0 96 0 95 -140 -3 -140 -3 0
48 0 47 469 0 c393 0 470 -2 474 -14 7 -17 -1 -26 -24 -26 -25 0 -74 -44 -89
-79 -7 -17 -22 -33 -34 -37 -25 -8 -76 -53 -76 -69 0 -6 -16 -10 -37 -9 -31 1
-32 0 -7 -3 27 -3 33 -9 38 -38 14 -71 114 -120 199 -97 27 8 40 7 56 -4 25
-18 48 -19 167 -7 97 10 146 33 159 74 7 21 29 22 78 4 9 -4 17 -3 17 4 0 5
-18 15 -39 21 -32 8 -41 16 -46 40 -4 16 -21 41 -38 56 -18 14 -39 40 -48 57
-16 31 -16 31 30 93 27 36 50 58 56 54 6 -5 42 -25 80 -45z m-135 27 c0 -2
-14 -23 -31 -47 -29 -40 -34 -43 -58 -34 -14 6 -42 8 -62 5 -26 -4 -40 -1 -49
9 -7 8 -30 20 -51 27 -24 7 -39 17 -39 27 0 14 19 16 145 16 80 0 145 -2 145
-3z m-214 -74 c23 -19 38 -22 80 -20 42 3 56 0 73 -17 12 -12 21 -29 21 -38 1
-10 15 -27 33 -38 17 -11 38 -33 46 -49 31 -66 -51 -138 -156 -136 -26 1 -64
-2 -83 -5 -20 -4 -48 -1 -65 6 -16 7 -67 13 -112 13 -76 1 -84 3 -112 30 -24
23 -31 39 -31 66 0 40 21 66 78 94 17 9 32 23 32 30 0 19 39 66 64 76 41 17
102 11 132 -12z m-766 -118 l0 -80 -375 0 -375 0 0 80 0 80 375 0 375 0 0 -80z
m1025 -360 c-10 -11 -14 -20 -8 -20 5 0 18 9 28 20 17 19 31 20 382 20 l363 0
0 -215 0 -215 -579 0 -580 0 -21 30 -21 30 35 31 c30 26 36 38 36 72 0 33 -6
46 -37 76 -21 20 -44 49 -51 64 -15 34 -74 61 -114 53 -18 -4 -40 2 -64 16
-74 43 -168 18 -202 -54 -9 -21 -26 -39 -39 -42 -12 -3 -35 -20 -52 -37 -45
-44 -44 -98 3 -145 19 -19 43 -34 54 -34 17 0 19 -4 13 -27 l-7 -28 -217 -3
-217 -2 0 65 0 65 140 0 140 0 0 95 0 95 -140 0 -140 0 0 55 0 55 657 0 c655
0 656 0 638 -20z m-635 -54 c27 -18 43 -22 77 -18 48 5 87 -14 98 -49 4 -12
25 -39 46 -59 22 -20 39 -46 39 -58 0 -66 -65 -114 -153 -112 -29 0 -71 -2
-93 -6 -29 -4 -51 -1 -73 10 -26 14 -39 15 -73 6 -77 -21 -178 31 -178 91 0
36 28 75 67 93 26 12 44 29 55 54 33 72 121 94 188 48z m-390 -126 l0 -80
-425 0 -425 0 0 73 c0 41 3 77 7 80 3 4 195 7 425 7 l418 0 0 -80z m321 -176
c20 -18 52 -19 170 -7 l86 8 16 -27 16 -28 -94 0 c-83 0 -95 2 -96 18 -1 16
-2 16 -6 0 -4 -16 -18 -18 -119 -18 -63 0 -114 4 -114 9 0 29 14 41 49 41 20
0 43 5 51 10 20 13 21 13 41 -6z"/>
<path d="M1371 1747 c-14 -37 -14 -42 3 -28 10 9 16 8 25 -3 16 -19 41 -9 41
15 0 21 -30 27 -30 7 -1 -7 -7 -2 -15 12 l-13 25 -11 -28z"/>
<path d="M1490 1756 c0 -7 -7 -19 -15 -26 -9 -8 -15 -8 -15 -2 0 6 6 13 13 15
7 3 5 6 -5 6 -13 1 -18 -7 -18 -24 0 -22 3 -24 19 -16 10 6 21 7 25 4 3 -3 6
8 6 25 0 18 -2 32 -5 32 -3 0 -5 -6 -5 -14z"/>
<path d="M1511 1745 c-1 -29 1 -31 38 -32 30 -1 41 3 44 15 4 15 5 15 6 0 0
-10 8 -18 16 -18 10 0 15 10 14 33 l-1 32 -8 -30 c-6 -23 -8 -25 -9 -8 -1 17
-6 20 -23 15 -13 -3 -29 -13 -36 -21 -11 -14 -12 -13 -6 9 6 22 5 23 -9 12
-13 -11 -16 -10 -20 5 -3 11 -5 6 -6 -12z"/>
<path d="M1640 1730 c0 -11 7 -20 15 -20 8 0 15 9 15 20 0 11 -7 20 -15 20 -8
0 -15 -9 -15 -20z"/>
<path d="M1681 1728 c0 -22 1 -22 9 -3 8 19 9 19 9 1 1 -15 4 -17 12 -9 13 13
4 33 -17 33 -8 0 -14 -9 -13 -22z"/>
<path d="M1440 1665 c0 -8 6 -15 13 -15 8 0 7 -3 -3 -10 -8 -5 -11 -12 -7 -16
3 -4 13 -1 21 5 10 8 16 9 21 1 9 -15 25 -2 25 21 0 21 -26 27 -32 7 -3 -7
-10 -8 -17 -4 -11 7 -11 10 0 17 11 7 10 9 -3 9 -10 0 -18 -7 -18 -15z"/>
<path d="M1521 1648 c0 -21 1 -22 8 -3 8 19 8 19 19 0 9 -16 13 -17 20 -7 7
11 11 10 16 -5 7 -17 8 -17 21 0 9 13 14 14 17 5 3 -7 7 -4 10 8 5 18 1 21
-26 22 -17 0 -36 -4 -43 -10 -9 -7 -13 -7 -13 1 0 6 -7 11 -15 11 -9 0 -15 -9
-14 -22z"/>
<path d="M2141 1747 c-14 -37 -14 -42 2 -28 8 6 17 8 20 4 10 -10 8 20 -3 37
-7 11 -11 9 -19 -13z"/>
<path d="M2260 1756 c0 -7 -7 -19 -15 -26 -9 -8 -15 -8 -15 -2 0 6 6 12 13 15
6 2 -5 5 -25 5 -34 0 -38 -3 -38 -24 0 -28 3 -29 24 -8 15 14 16 14 16 -1 0
-12 4 -14 19 -6 10 6 21 7 25 4 3 -3 6 8 6 25 0 18 -2 32 -5 32 -3 0 -5 -6 -5
-14z"/>
<path d="M2281 1745 c-1 -39 33 -48 35 -9 2 19 -1 22 -11 14 -10 -8 -14 -7
-18 7 -3 11 -5 6 -6 -12z"/>
<path d="M2390 1745 c-2 -26 -3 -27 -8 -9 -6 17 -11 20 -29 13 -13 -5 -23 -15
-23 -24 0 -21 27 -19 33 3 4 16 5 16 6 0 1 -21 27 -24 34 -5 4 10 6 10 6 0 1
-7 8 -13 16 -13 8 0 15 6 15 13 0 8 4 7 10 -3 8 -12 10 -12 11 5 0 19 1 19 8
1 5 -14 10 -16 15 -8 13 21 -4 32 -44 29 -29 -2 -40 1 -43 12 -3 9 -6 3 -7
-14z"/>
<path d="M2210 1665 c0 -8 6 -15 13 -15 8 0 7 -3 -3 -10 -8 -5 -11 -12 -7 -16
3 -4 13 -1 21 5 11 9 16 9 21 0 6 -8 11 -6 18 6 8 14 11 15 18 4 7 -11 9 -9 9
6 1 20 1 20 16 0 12 -16 17 -17 23 -7 7 11 9 11 14 -2 8 -21 27 -20 27 2 0 13
2 14 9 4 6 -11 9 -9 13 6 4 15 0 20 -18 20 -15 0 -21 -5 -17 -12 4 -7 1 -6 -8
1 -12 10 -18 10 -27 1 -8 -8 -12 -9 -12 -1 0 6 -16 11 -35 10 -19 -1 -35 -4
-35 -9 0 -4 -7 -5 -16 -1 -13 5 -13 7 -2 14 10 7 9 9 -4 9 -10 0 -18 -7 -18
-15z"/>
<path d="M206 1720 c-16 -38 -14 -49 7 -32 10 9 17 8 26 -1 11 -10 12 -7 6 13
-16 53 -23 57 -39 20z"/>
<path d="M361 1718 c-1 -28 3 -38 14 -38 8 0 15 5 15 10 0 6 -4 10 -9 10 -5 0
-12 12 -14 28 -3 22 -4 20 -6 -10z"/>
<path d="M400 1715 c0 -22 4 -34 10 -30 6 3 10 17 10 30 0 13 -4 27 -10 30 -6
4 -10 -8 -10 -30z"/>
<path d="M441 1741 c-7 -5 -11 -19 -9 -32 3 -27 45 -39 59 -17 7 11 11 10 18
-2 16 -23 23 -5 10 24 -15 31 -29 34 -36 6 -3 -11 -14 -20 -24 -20 -24 0 -25
27 -1 32 10 2 13 6 7 10 -6 4 -17 3 -24 -1z"/>
<path d="M535 1733 c3 -8 5 -23 5 -34 0 -10 5 -19 10 -19 6 0 10 11 10 25 0
34 18 32 23 -2 4 -27 4 -27 6 3 1 28 -3 32 -29 36 -24 4 -30 1 -25 -9z"/>
<path d="M711 1730 c-1 -22 -3 -23 -12 -7 -16 27 -29 20 -28 -15 0 -26 2 -29
8 -13 8 19 8 19 19 0 15 -27 24 -14 19 27 -3 25 -4 27 -6 8z"/>
<path d="M758 1744 c-5 -4 -8 -20 -8 -36 0 -24 4 -28 29 -28 16 0 32 6 34 13
4 9 8 8 16 -3 16 -23 23 -6 10 24 -15 31 -29 34 -36 6 -8 -29 -31 -25 -35 6
-2 14 -6 22 -10 18z"/>
<path d="M856 1724 c8 -34 24 -56 24 -32 0 9 3 25 7 35 3 10 3 15 -2 11 -4 -4
-14 -3 -22 4 -12 10 -13 7 -7 -18z"/>
<path d="M260 1710 l0 -30 20 20 c22 22 19 40 -6 40 -9 0 -14 -11 -14 -30z"/>
<path d="M310 1710 l0 -30 20 20 c22 22 19 40 -6 40 -9 0 -14 -11 -14 -30z"/>
<path d="M604 1725 c-4 -9 0 -23 9 -32 21 -21 49 -9 45 19 -4 28 -45 38 -54
13z"/>
<path d="M900 1710 c0 -24 4 -30 21 -30 18 0 19 2 9 15 -10 12 -10 15 1 15 12
0 12 2 0 9 -11 7 -11 9 0 14 8 3 4 6 -8 6 -19 1 -23 -4 -23 -29z"/>
<path d="M951 1708 c0 -18 3 -27 6 -20 3 9 9 10 17 2 10 -7 13 -3 14 20 0 23
-4 30 -19 30 -15 0 -19 -7 -18 -32z"/>
<path d="M2363 1346 c-31 -14 -33 -18 -33 -70 0 -71 15 -80 130 -80 114 0 130
9 130 78 0 37 -5 58 -16 67 -23 19 -171 23 -211 5z m201 -16 c23 -23 -118 -40
-182 -22 -33 10 -28 26 10 34 41 8 160 0 172 -12z m-127 -62 c11 15 12 13 13
-13 0 -26 -4 -31 -25 -31 -21 0 -25 4 -24 31 0 25 2 28 12 13 10 -15 12 -15
24 0z m96 -8 c-8 -30 -30 -45 -47 -31 -11 9 -15 9 -19 -1 -3 -7 -6 1 -6 18 -1
30 1 32 38 32 33 1 38 -2 34 -18z"/>
<path d="M1180 1227 c-22 -11 -25 -19 -25 -67 0 -51 2 -56 30 -69 39 -19 161
-19 199 0 25 13 28 19 30 67 1 49 -1 55 -26 68 -34 18 -174 18 -208 1z m179
-3 c46 -10 32 -28 -28 -37 -59 -10 -142 2 -148 20 -7 19 109 30 176 17z m-109
-94 c5 0 11 6 13 13 3 6 6 -1 6 -18 1 -23 -2 -27 -9 -15 -9 13 -11 13 -20 0
-7 -11 -9 -6 -9 20 1 19 3 27 6 18 2 -10 8 -18 13 -18z m100 21 c3 -1 -2 -6
-10 -11 -10 -6 -11 -10 -2 -10 6 0 12 -7 12 -15 0 -11 -11 -15 -37 -15 -25 0
-33 3 -24 9 11 7 11 9 0 13 -7 2 -10 11 -7 19 5 12 33 16 68 10z"/>
<path d="M2205 1135 c-19 -18 -25 -35 -25 -65 0 -87 29 -100 215 -100 186 0
215 13 215 100 0 30 -6 47 -25 65 -24 25 -27 25 -190 25 -163 0 -166 0 -190
-25z m335 -15 c18 -12 9 -12 -172 -14 -117 -1 -149 4 -115 17 23 10 272 7 287
-3z m-230 -43 c0 -8 2 -9 8 -1 9 14 42 14 41 0 0 -6 -4 -20 -8 -31 -8 -19 -8
-19 -19 0 -8 15 -11 16 -12 5 0 -11 -14 -15 -55 -16 -30 -1 -55 2 -55 7 0 5 6
9 13 10 10 0 10 2 0 6 -7 2 -13 11 -13 18 0 9 15 13 50 13 32 1 50 -3 50 -11z
m100 -4 c0 -15 2 -14 15 3 10 14 14 15 15 5 0 -12 3 -12 12 -3 7 7 19 12 28
12 12 -1 12 -2 -2 -11 -20 -11 -24 -29 -6 -29 6 0 8 3 5 7 -11 10 43 33 77 32
19 -1 24 -3 12 -6 -14 -4 -16 -7 -6 -13 11 -7 11 -11 1 -24 -14 -17 -88 -19
-108 -3 -8 6 -13 6 -13 0 0 -5 -7 -10 -15 -10 -8 0 -15 5 -15 11 0 6 -5 4 -10
-4 -8 -12 -10 -10 -10 10 l-1 25 -14 -25 c-15 -27 -19 -20 -9 18 7 26 44 31
44 5z"/>
<path d="M1706 1153 c-8 -19 19 -51 31 -39 5 5 2 11 -4 13 -7 3 -13 11 -13 18
0 7 6 16 13 18 7 4 6 6 -4 6 -9 1 -20 -7 -23 -16z"/>
<path d="M1772 1143 c-24 -26 -23 -45 1 -25 10 9 16 9 25 0 6 -6 15 -8 19 -3
5 4 2 10 -4 12 -18 6 -16 33 2 33 8 0 15 -9 15 -20 0 -17 2 -19 14 -8 9 8 10
15 4 19 -6 4 -5 9 3 12 8 3 -2 5 -21 5 -24 0 -42 -8 -58 -25z"/>
<path d="M354 1216 c-9 -24 0 -51 19 -54 9 -2 17 1 17 7 0 6 -7 11 -15 11 -8
0 -15 7 -15 15 0 8 7 15 16 15 8 0 12 5 9 10 -9 14 -25 12 -31 -4z"/>
<path d="M411 1220 c-7 -4 -11 -18 -9 -31 5 -35 42 -33 46 2 3 28 -16 43 -37
29z"/>
<path d="M467 1223 c-11 -10 -8 -53 3 -53 5 0 7 8 4 18 -4 11 1 8 15 -8 20
-24 23 -23 25 9 1 8 7 16 15 19 10 3 12 -1 8 -17 -3 -11 -1 -24 4 -27 5 -3 9
4 9 15 0 10 3 27 6 35 5 13 0 16 -25 14 -20 -1 -31 -8 -31 -18 -1 -13 -3 -12
-14 2 -7 10 -16 15 -19 11z"/>
<path d="M577 1223 c-4 -3 -7 -17 -7 -31 0 -16 4 -22 14 -19 7 3 19 0 25 -6
10 -9 11 -5 5 18 -10 45 -20 55 -37 38z"/>
<path d="M632 1218 c-16 -16 -15 -33 4 -48 22 -19 54 12 38 37 -14 22 -27 26
-42 11z"/>
<path d="M691 1198 c-1 -27 3 -38 13 -38 8 0 18 5 21 10 3 6 -1 10 -9 10 -8 0
-16 12 -19 28 -3 22 -4 20 -6 -10z"/>
<path d="M750 1200 c0 -36 23 -49 53 -30 15 9 22 10 25 1 2 -6 7 -9 12 -6 9 6
-11 65 -22 65 -4 0 -10 -11 -14 -25 -3 -14 -12 -25 -20 -25 -8 0 -14 10 -14
25 0 14 -4 25 -10 25 -5 0 -10 -14 -10 -30z"/>
<path d="M856 1204 c8 -34 24 -56 24 -32 0 9 3 25 7 35 3 10 3 15 -2 11 -4 -4
-14 -3 -22 4 -12 10 -13 7 -7 -18z"/>
<path d="M907 1223 c-11 -10 -8 -51 3 -58 6 -3 15 -3 21 1 8 4 7 9 -2 15 -11
7 -11 9 1 9 13 0 13 1 0 10 -11 7 -11 10 -2 10 7 0 10 5 7 10 -7 12 -19 13
-28 3z"/>
<path d="M951 1193 c0 -21 3 -32 6 -25 4 9 8 10 18 2 10 -8 13 -5 12 17 -2 26
-13 43 -29 43 -5 0 -8 -17 -7 -37z"/>
<path d="M2374 786 c-33 -15 -74 -60 -74 -82 0 -8 -15 -20 -32 -27 -18 -8 -39
-21 -46 -30 -12 -14 -17 -14 -49 -1 -19 8 -38 13 -41 10 -3 -3 11 -13 31 -21
33 -14 36 -17 27 -41 -31 -80 86 -162 190 -134 33 9 44 8 65 -6 18 -12 37 -15
72 -10 27 3 69 5 94 5 58 0 123 26 149 59 36 45 22 112 -31 147 -16 11 -29 26
-29 33 0 8 -13 27 -30 44 -26 26 -36 29 -78 27 -32 -2 -56 3 -75 15 -36 24
-104 30 -143 12z m131 -25 c17 -9 51 -16 76 -16 50 0 99 -26 99 -52 0 -8 21
-35 46 -59 42 -39 46 -46 40 -75 -15 -77 -56 -93 -263 -102 -28 -1 -48 4 -61
17 -16 14 -25 15 -41 7 -49 -27 -154 -4 -185 40 -36 53 -8 115 67 147 15 6 27
18 27 26 0 25 50 75 83 85 37 10 69 5 112 -18z"/>
<path d="M2400 594 c0 -28 6 -30 27 -9 8 8 19 12 25 9 6 -4 5 -10 -3 -15 -10
-6 -8 -9 9 -9 24 0 28 10 10 28 -9 9 -8 12 4 12 9 0 19 -10 21 -22 l4 -23 2
23 c0 12 6 22 11 22 6 0 10 -10 11 -22 0 -22 1 -22 9 -3 14 34 12 35 -60 34
-67 -1 -70 -2 -70 -25z"/>
<path d="M2546 604 c-7 -18 0 -34 15 -34 5 0 9 11 9 25 0 28 -15 34 -24 9z"/>
<path d="M1770 771 c-13 -25 -13 -117 0 -142 10 -18 23 -19 175 -19 190 0 179
-7 173 110 l-3 65 -167 3 c-157 2 -168 1 -178 -17z m320 -32 c0 -4 -65 -7
-145 -6 -80 1 -145 5 -145 10 0 10 -7 9 135 16 121 6 155 1 155 -20z m-242
-20 c-10 -5 -18 -15 -18 -22 0 -8 3 -7 9 2 5 7 14 10 20 7 6 -4 11 -3 11 2 0
6 45 10 110 9 113 -1 123 -5 97 -41 -10 -13 -18 -15 -37 -8 -14 5 -35 8 -47 7
-13 -1 -23 2 -23 7 0 4 -5 8 -11 8 -5 0 -8 -4 -5 -9 3 -5 -26 -9 -65 -8 -50 0
-72 4 -76 13 -9 23 5 44 29 44 20 -1 21 -2 6 -11z m167 -69 c14 -5 1 -8 -40
-8 -43 1 -53 3 -35 8 33 10 51 10 75 0z"/>
<path d="M1403 693 c-17 -6 -17 -54 -1 -50 22 4 40 27 34 42 -6 15 -12 17 -33
8z"/>
<path d="M1501 614 c-9 -11 -17 -12 -23 -6 -6 6 -20 7 -32 3 -19 -7 -31 -8
-61 -1 -31 7 -56 -1 -53 -17 2 -9 10 -18 18 -20 13 -4 13 -3 0 6 -13 9 -13 11
3 11 9 0 17 -4 17 -10 0 -5 4 -10 10 -10 5 0 7 8 4 18 -5 16 -4 16 9 -1 11
-14 16 -15 20 -5 4 10 6 10 6 -1 1 -11 4 -11 16 -1 10 9 15 9 15 1 0 -6 7 -11
15 -11 8 0 15 6 15 13 0 8 4 7 10 -3 8 -13 10 -12 10 3 0 9 5 17 10 17 6 0 10
-6 10 -13 0 -8 6 -14 14 -14 16 0 16 27 -1 45 -14 15 -15 15 -32 -4z"/>
<path d="M250 670 c0 -5 5 -10 10 -10 6 0 10 -12 10 -26 0 -15 4 -23 10 -19 6
4 8 15 5 26 -4 11 -2 19 4 19 6 0 11 5 11 10 0 6 -11 10 -25 10 -14 0 -25 -4
-25 -10z"/>
<path d="M311 643 c0 -28 2 -33 8 -19 7 18 8 18 14 2 5 -13 11 -15 24 -7 10 5
31 7 46 4 19 -4 27 -1 27 8 0 9 3 10 8 3 4 -6 19 -14 35 -18 20 -5 29 -2 34
10 3 9 0 20 -8 25 -10 6 -10 9 -1 9 6 0 12 5 12 10 0 16 -20 12 -27 -6 -3 -9
0 -20 8 -25 11 -7 11 -9 -3 -9 -13 0 -18 8 -18 28 -1 25 -2 26 -14 9 -12 -16
-14 -16 -20 -2 -8 22 -26 9 -27 -18 0 -19 -2 -19 -11 6 -12 34 -26 35 -34 2
-8 -31 -25 -33 -21 -3 1 14 -4 23 -15 26 -15 3 -18 -3 -17 -35z"/>
<path d="M520 650 c0 -34 5 -37 27 -15 17 18 11 45 -12 45 -10 0 -15 -10 -15
-30z"/>
<path d="M577 674 c-13 -14 -7 -52 10 -58 22 -9 35 6 31 35 -3 23 -27 37 -41
23z"/>
<path d="M639 675 c-5 -2 -3 -55 3 -55 4 0 8 5 8 12 0 6 7 3 16 -8 15 -19 15
-19 10 1 -3 11 -1 27 4 35 10 16 13 11 23 -35 3 -15 5 -13 6 8 0 15 6 27 11
27 6 0 10 4 10 10 0 7 -76 11 -91 5z"/>
<path d="M752 648 c3 -29 6 -33 28 -30 14 2 35 3 47 4 19 0 20 3 11 29 -12 36
-26 37 -34 4 -3 -14 -12 -25 -20 -25 -8 0 -14 10 -14 25 0 14 -5 25 -11 25 -6
0 -9 -14 -7 -32z"/>
<path d="M856 654 c10 -44 21 -49 28 -13 3 18 4 34 1 37 -3 3 -5 0 -5 -8 0
-10 -3 -10 -16 1 -13 11 -14 9 -8 -17z"/>
<path d="M907 673 c-11 -10 -8 -51 4 -59 6 -3 16 -1 22 5 8 8 8 11 0 11 -12 0
-12 18 0 38 9 13 -14 18 -26 5z"/>
<path d="M951 648 c0 -18 3 -27 6 -20 4 10 8 9 18 -5 11 -15 13 -13 11 17 -1
24 -7 36 -19 38 -13 3 -17 -3 -16 -30z"/>
<path d="M1087 344 c-4 -4 -7 -43 -7 -86 l0 -78 125 0 126 0 -3 83 -3 82 -116
3 c-63 1 -118 -1 -122 -4z m213 -79 l0 -65 -85 0 -85 0 0 65 0 65 85 0 85 0 0
-65z"/>
<path d="M1404 317 c-2 -7 -4 -54 -2 -102 l3 -89 33 -10 c20 -5 44 -5 65 0
l32 10 0 99 0 100 -63 3 c-46 2 -64 -1 -68 -11z m116 -82 l0 -75 -50 0 -50 0
0 75 0 75 50 0 50 0 0 -75z"/>
<path d="M1654 317 c-3 -8 -4 -45 -2 -83 l3 -69 110 0 110 0 0 80 0 80 -108 3
c-84 2 -109 0 -113 -11z m206 -72 l0 -65 -95 0 -95 0 0 65 0 65 95 0 95 0 0
-65z"/>
<path d="M2485 290 c-11 -35 4 -75 44 -114 45 -44 99 -58 121 -31 12 15 11 19
-10 36 -23 17 -26 17 -37 2 -11 -14 -14 -14 -37 1 -35 22 -51 53 -36 71 8 10
8 19 0 34 -14 27 -37 27 -45 1z"/>
<path d="M359 254 c-11 -30 -3 -46 12 -24 6 10 12 11 17 5 4 -6 23 -12 42 -13
31 -2 33 0 18 12 -21 16 -23 36 -4 36 8 0 17 -11 20 -24 5 -21 12 -25 46 -24
33 0 38 3 29 14 -9 11 -8 14 2 14 12 0 12 2 0 9 -11 7 -11 9 0 14 8 3 -17 5
-54 5 -61 0 -69 -3 -76 -21 l-8 -22 -7 23 c-10 30 -24 28 -37 -4z m151 -5 c0
-24 -23 -21 -28 4 -2 10 3 17 12 17 10 0 16 -9 16 -21z"/>
<path d="M560 267 c0 -7 6 -19 13 -26 10 -11 10 -13 0 -7 -7 4 -13 3 -13 -2 0
-6 22 -10 49 -9 45 0 50 3 54 26 6 32 -2 43 -10 13 -4 -18 -8 -20 -20 -11 -11
10 -11 14 -1 20 9 6 6 9 -9 9 -24 0 -32 -25 -10 -33 6 -2 9 -7 6 -10 -3 -4
-16 1 -28 10 -18 12 -20 17 -10 24 11 7 10 9 -3 9 -10 0 -18 -6 -18 -13z"/>
<path d="M680 250 c0 -33 19 -40 40 -15 16 20 5 45 -20 45 -16 0 -20 -7 -20
-30z"/>
<path d="M740 250 c0 -21 5 -30 16 -30 14 0 14 3 4 15 -10 12 -10 15 1 15 11
0 11 2 -1 10 -13 8 -13 10 2 10 11 0 20 -10 24 -25 7 -30 28 -28 32 3 2 12 8
22 14 22 6 0 8 -10 4 -25 -4 -14 -2 -25 4 -25 5 0 10 14 10 30 0 23 -4 30 -20
30 -12 0 -20 -7 -20 -17 -1 -17 -1 -17 -11 0 -5 9 -21 17 -34 17 -21 0 -25 -5
-25 -30z"/>
<path d="M864 265 c-4 -8 -4 -22 0 -30 6 -17 36 -21 36 -4 0 5 -4 8 -9 4 -19
-11 -24 18 -6 32 17 12 17 13 2 13 -10 0 -20 -7 -23 -15z"/>
<path d="M910 249 c0 -27 2 -29 40 -29 40 0 55 19 29 36 -8 5 -8 9 1 14 7 4
-6 8 -29 8 -39 1 -41 -1 -41 -29z m48 9 c17 -17 15 -24 -7 -25 -14 -1 -19 4
-18 18 1 22 8 24 25 7z"/>
<path d="M1602 138 c6 -16 317 -19 321 -3 1 6 -59 11 -161 13 -129 2 -163 0
-160 -10z"/>
</g>
</svg>
