<?xml version="1.0" encoding="UTF-8"?>
<svg id="Layer_1" xmlns="http://www.w3.org/2000/svg" version="1.1" viewBox="0 0 70.9 70.9">
  <!-- Generator: Adobe Illustrator 29.1.0, SVG Export Plug-In . SVG Version: 2.1.0 Build 142)  -->
  <defs>
    <style>
      .st0 {
        stroke-width: 2px;
      }

      .st0, .st1, .st2 {
        fill: none;
        stroke: #009adf;
        stroke-miterlimit: 22.9;
      }

      .st1 {
        stroke-width: 1.4px;
      }

      .st3 {
        fill: #009adf;
      }

      .st2 {
        stroke-width: 1px;
      }
    </style>
  </defs>
  <rect class="st0" x="1.4" y="1.4" width="68" height="68"/>
  <path class="st3" d="M33.8,33.4c-.4,0-.7,0-1-.2-.3-.1-.6-.3-.8-.5-.2-.2-.4-.5-.5-.8-.1-.3-.2-.6-.2-1s0-.7.2-1c.1-.3.3-.6.5-.8.2-.2.5-.4.8-.5.3-.1.6-.2,1-.2s.7,0,1.1.2c.3.1.6.3.8.6l-.6.5c-.2-.2-.4-.3-.6-.4-.2,0-.4-.1-.7-.1s-.5,0-.7.1c-.2,0-.4.2-.5.3-.2.1-.3.3-.4.5,0,.2-.1.4-.1.7s0,.5.1.7.2.4.4.5c.2.1.3.3.5.3.2,0,.4.1.7.1s.5,0,.7-.1c.2,0,.4-.2.6-.4l.6.5c-.2.3-.5.5-.8.6-.3.1-.7.2-1.1.2M27.6,33.3v-4.8s.9,0,.9,0v4h2.5s0,.7,0,.7h-3.4ZM23.6,31.7l-.4-.4h1.4c.4,0,.7,0,.9-.2.2-.2.3-.4.3-.7s0-.5-.3-.7c-.2-.2-.5-.2-.9-.2h-1.4l.4-.4v2.8ZM22.8,33.3v-4.8h2c.4,0,.8,0,1.1.2.3.1.5.3.7.6.2.3.2.6.2.9s0,.7-.2.9c-.2.3-.4.4-.7.6-.3.1-.7.2-1.1.2h-1.5l.4-.4v1.8h-.9Z"/>
  <rect class="st1" x="16.5" y="22.8" width="37.8" height="25.2"/>
  <rect class="st2" x="20" y="38.9" width="4.4" height="2.7"/>
  <rect class="st2" x="27" y="38.9" width="4.4" height="2.7"/>
  <rect class="st2" x="34" y="38.9" width="4.4" height="2.7"/>
  <rect class="st2" x="20" y="26.5" width="18.5" height="9"/>
  <path class="st2" d="M19.3,22.8v-9.8h6.4v9.8h-6.4ZM19.3,57.8v-9.8h6.4v9.8h-6.4Z"/>
  <path class="st2" d="M32.2,22.8v-9.8h-6.4v9.8h6.4ZM32.2,57.8v-9.8h-6.4v9.8h6.4Z"/>
  <path class="st2" d="M32.2,22.8v-9.8h6.4v9.8h-6.4ZM32.2,57.8v-9.8h6.4v9.8h-6.4Z"/>
  <path class="st2" d="M45.1,22.8v-9.8h-6.4v9.8h6.4ZM45.1,57.8v-9.8h-6.4v9.8h6.4Z"/>
  <path class="st2" d="M45.1,22.8v-9.8h6.4v9.8h-6.4ZM45.1,57.8v-9.8h6.4v9.8h-6.4Z"/>
  <path class="st2" d="M46.8,27.7c3.1,0,5.7,2.5,5.7,5.7s-2.5,5.7-5.7,5.7-5.7-2.5-5.7-5.7,2.5-5.7,5.7-5.7Z"/>
  <path class="st2" d="M22.6,16.3c.7,0,1.3.6,1.3,1.3s-.6,1.3-1.3,1.3-1.3-.6-1.3-1.3.6-1.3,1.3-1.3Z"/>
  <path class="st2" d="M29,16.3c.7,0,1.3.6,1.3,1.3s-.6,1.3-1.3,1.3-1.3-.6-1.3-1.3.6-1.3,1.3-1.3Z"/>
  <path class="st2" d="M35.4,16.3c.7,0,1.3.6,1.3,1.3s-.6,1.3-1.3,1.3-1.3-.6-1.3-1.3.6-1.3,1.3-1.3Z"/>
  <circle class="st2" cx="41.9" cy="17.7" r="1.3"/>
  <circle class="st2" cx="48.3" cy="17.7" r="1.3"/>
  <path class="st2" d="M22.6,54.5c.7,0,1.3-.6,1.3-1.3s-.6-1.3-1.3-1.3-1.3.6-1.3,1.3.6,1.3,1.3,1.3Z"/>
  <path class="st2" d="M29,54.5c.7,0,1.3-.6,1.3-1.3s-.6-1.3-1.3-1.3-1.3.6-1.3,1.3.6,1.3,1.3,1.3Z"/>
  <path class="st2" d="M35.4,54.5c.7,0,1.3-.6,1.3-1.3s-.6-1.3-1.3-1.3-1.3.6-1.3,1.3.6,1.3,1.3,1.3Z"/>
  <path class="st2" d="M41.9,54.5c.7,0,1.3-.6,1.3-1.3s-.6-1.3-1.3-1.3-1.3.6-1.3,1.3.6,1.3,1.3,1.3Z"/>
  <path class="st2" d="M48.3,54.5c.7,0,1.3-.6,1.3-1.3s-.6-1.3-1.3-1.3-1.3.6-1.3,1.3.6,1.3,1.3,1.3Z"/>
</svg>