<?xml version="1.0" standalone="no"?>
<!DOCTYPE svg PUBLIC "-//W3C//DTD SVG 20010904//EN"
 "http://www.w3.org/TR/2001/REC-SVG-20010904/DTD/svg10.dtd">
<svg version="1.0" xmlns="http://www.w3.org/2000/svg"
 width="300.000000pt" height="319.000000pt" viewBox="0 0 300.000000 319.000000"
 preserveAspectRatio="xMidYMid meet">
<metadata>
Created by potrace 1.10, written by Peter Selinger 2001-2011
</metadata>
<g transform="translate(0.000000,319.000000) scale(0.100000,-0.100000)"
fill="#000000" stroke="none">
<path d="M1410 2990 c-243 -30 -475 -181 -597 -388 -21 -36 -45 -83 -54 -105
-15 -37 -20 -41 -91 -63 -185 -59 -337 -211 -402 -405 -115 -343 88 -716 444
-815 60 -17 120 -19 800 -18 814 0 788 -2 924 66 226 113 371 365 351 612 -6
87 -42 206 -81 273 -76 132 -213 243 -351 286 -72 23 -77 27 -92 64 -91 228
-313 416 -563 476 -82 20 -206 27 -288 17z m268 -41 c80 -18 203 -65 210 -81
2 -4 9 -8 16 -8 14 0 140 -99 181 -143 64 -69 145 -197 145 -229 0 -20 38 -49
90 -69 112 -43 178 -82 246 -146 58 -54 118 -139 139 -198 10 -27 21 -54 25
-60 15 -22 32 -154 27 -210 -7 -83 -17 -138 -25 -145 -4 -3 -8 -12 -10 -20
-11 -63 -83 -180 -148 -240 -83 -78 -210 -150 -263 -150 -10 0 -23 -6 -29 -12
-10 -10 -173 -13 -735 -15 -397 -1 -745 2 -774 7 -29 5 -67 15 -85 23 -18 8
-53 23 -78 33 -25 11 -64 34 -87 52 -24 17 -45 32 -48 32 -8 0 -83 85 -108
121 -90 133 -125 307 -93 458 47 220 196 387 413 462 48 16 97 51 98 69 2 36
118 209 177 266 118 110 299 200 438 217 77 9 199 3 278 -14z"/>
<path d="M1390 2209 c0 -4 -18 -10 -40 -14 -23 -4 -54 -18 -69 -31 -30 -25
-51 -31 -51 -14 0 6 -9 19 -20 30 -16 16 -33 20 -82 20 -60 0 -64 -2 -85 -33
-13 -18 -23 -40 -23 -48 -1 -26 -37 -123 -47 -126 -12 -4 -25 26 -48 108 -23
82 -43 99 -115 99 -97 0 -106 -23 -65 -155 14 -44 33 -102 41 -130 9 -27 19
-59 24 -70 4 -11 20 -55 35 -98 15 -43 34 -81 41 -84 32 -12 -2 -23 -71 -23
-68 0 -76 -2 -91 -25 -15 -23 -15 -27 5 -58 12 -19 21 -50 21 -68 0 -47 24
-79 59 -79 18 0 31 7 35 16 6 15 8 15 27 -2 15 -14 32 -17 67 -15 50 4 69 4
147 3 109 -2 128 -1 145 8 13 7 21 7 25 0 9 -14 119 -12 133 2 9 9 15 9 24 0
15 -15 50 -16 65 -1 7 7 22 5 51 -6 38 -15 46 -16 85 -2 28 9 49 12 58 6 8 -5
48 -10 89 -10 41 0 92 -1 112 -2 23 -1 45 6 58 18 20 18 21 18 61 -2 47 -24
87 -23 135 3 32 18 34 18 47 0 9 -12 23 -17 42 -14 26 3 31 9 39 43 4 22 17
62 28 88 10 26 16 56 13 66 -7 24 -40 33 -72 20 -14 -5 -30 -6 -36 -2 -7 4
-28 8 -47 9 -19 0 -52 1 -72 2 l-38 2 20 20 c11 11 21 35 21 53 3 57 4 62 12
74 4 6 29 14 57 18 121 17 193 134 158 255 -13 45 -37 76 -81 105 -47 32 -51
33 -164 34 -90 2 -120 -1 -139 -14 -22 -14 -26 -14 -49 1 -19 12 -40 15 -80
12 -66 -6 -74 -12 -81 -64 -10 -69 -11 -69 -62 -18 -26 27 -62 58 -81 68 -34
19 -171 39 -171 25z m155 -53 c173 -80 197 -328 41 -435 -165 -114 -383 -15
-403 184 -20 193 183 335 362 251z m-627 -124 c23 -77 42 -146 42 -155 0 -10
5 -17 10 -17 6 0 10 6 10 12 0 7 19 77 42 155 l42 143 72 0 73 0 -40 -117
c-22 -65 -58 -175 -80 -245 l-40 -128 -78 0 -77 0 -77 238 c-43 130 -77 240
-77 245 0 4 31 7 68 7 l69 0 41 -138z m942 -107 l0 -245 -65 0 -65 0 0 245 0
245 65 0 65 0 0 -245z m327 229 c19 -9 46 -33 61 -52 23 -30 27 -45 27 -101 0
-53 -5 -72 -23 -99 -32 -44 -90 -72 -152 -72 l-50 0 0 -75 0 -76 -65 3 -66 3
-2 243 -2 242 118 0 c90 0 128 -4 154 -16z m-987 -388 c33 -40 67 -68 113 -92
27 -14 47 -28 44 -31 -12 -11 -90 -14 -242 -9 -153 6 -143 4 -125 16 8 5 23 7
32 4 24 -7 66 40 74 82 3 19 10 37 15 40 5 3 9 12 9 20 0 8 7 31 16 52 l17 37
16 -50 c9 -27 23 -58 31 -69z m500 -18 c0 -68 23 -96 70 -90 8 1 22 -2 30 -8
13 -8 11 -12 -7 -30 -28 -26 -40 -25 -63 3 -17 20 -21 21 -51 10 -17 -7 -36
-10 -40 -7 -5 3 -33 9 -61 13 -43 7 -55 6 -64 -7 -6 -9 -18 -13 -28 -9 -28 11
-17 25 26 32 44 8 133 67 156 104 18 31 32 26 32 -11z m205 -75 c9 -12 26 -17
54 -17 43 1 49 -11 18 -34 -14 -11 -22 -11 -49 2 -17 9 -44 16 -59 16 l-28 0
22 24 c27 30 27 30 42 9z m-1037 -80 c3 -19 -1 -23 -24 -23 l-27 0 7 -70 c6
-70 6 -70 -19 -70 -24 0 -25 2 -25 70 0 62 -2 70 -19 70 -18 0 -35 33 -23 44
3 3 33 5 66 3 55 -2 61 -4 64 -24z m122 2 c0 -22 -4 -25 -35 -25 -19 0 -35 -4
-35 -10 0 -5 14 -10 30 -10 25 0 30 -4 30 -25 0 -21 -5 -25 -30 -25 -16 0 -30
-4 -30 -10 0 -5 16 -10 35 -10 31 0 35 -3 35 -25 0 -24 -3 -25 -55 -25 l-55 0
0 95 0 95 55 0 c52 0 55 -1 55 -25z m134 14 c14 -7 27 -18 30 -25 6 -17 -30
-39 -39 -24 -9 14 -48 13 -63 -2 -19 -19 -14 -55 10 -72 19 -14 25 -14 44 -1
18 11 25 12 39 1 17 -12 16 -14 -6 -34 -31 -30 -79 -29 -113 3 -20 19 -26 33
-26 67 1 77 58 117 124 87z m93 -24 c-5 -32 -4 -35 19 -35 21 0 24 5 24 36 0
31 3 35 23 32 21 -3 22 -7 22 -95 0 -90 -1 -93 -22 -93 -20 0 -23 5 -23 35 0
30 -3 35 -24 35 -23 0 -24 -3 -19 -35 5 -33 4 -35 -21 -35 l-26 0 0 95 0 95
26 0 c25 0 26 -2 21 -35z m173 -12 l30 -48 0 48 c0 42 2 47 23 47 21 0 22 -3
22 -95 0 -83 -2 -95 -17 -95 -10 0 -29 20 -45 48 l-28 47 -3 -47 c-3 -40 -6
-48 -23 -48 -17 0 -19 8 -19 95 0 113 13 123 60 48z m237 23 c23 -20 28 -32
28 -71 0 -39 -5 -51 -28 -71 -16 -13 -41 -24 -57 -24 -16 0 -41 11 -57 24 -23
20 -28 32 -28 71 0 39 5 51 28 71 16 13 41 24 57 24 16 0 41 -11 57 -24z m93
-46 l0 -70 30 0 c25 0 30 -4 30 -25 0 -24 -3 -25 -53 -25 l-52 0 0 95 c0 92 0
95 22 95 22 0 23 -4 23 -70z m201 41 c21 -22 29 -39 29 -66 0 -78 -92 -124
-145 -71 -34 34 -41 71 -21 112 28 59 91 71 137 25z m179 11 c33 -27 18 -43
-34 -36 -38 6 -46 4 -56 -15 -22 -42 13 -86 58 -74 28 7 29 23 2 23 -13 0 -20
7 -20 20 0 17 7 20 46 20 l47 0 -7 -32 c-14 -76 -94 -101 -148 -48 -27 28 -30
36 -25 73 10 74 84 112 137 69z m88 -19 l19 -37 12 37 c10 29 18 37 37 37 30
0 30 -7 -1 -61 -16 -28 -25 -60 -25 -86 0 -39 -2 -43 -25 -43 -23 0 -25 4 -25
43 0 27 -9 56 -25 82 -30 49 -31 65 -5 65 12 0 26 -13 38 -37z"/>
<path d="M1396 2045 c-50 -17 -64 -31 -77 -75 -25 -82 20 -156 101 -167 102
-14 174 92 126 186 -29 55 -87 77 -150 56z m95 -47 c10 -12 15 -26 13 -30 -3
-5 -2 -18 2 -31 l8 -22 7 25 c6 21 7 19 8 -14 1 -31 -5 -45 -29 -67 -67 -64
-173 -6 -156 85 14 73 107 108 147 54z"/>
<path d="M2050 2000 c0 -49 1 -50 31 -50 45 0 69 16 69 48 0 38 -17 52 -62 52
l-38 0 0 -50z"/>
<path d="M1530 1550 c-22 -41 14 -86 56 -70 25 10 34 37 23 68 -11 30 -64 31
-79 2z"/>
<path d="M1833 1563 c-7 -2 -13 -20 -13 -39 0 -27 5 -37 23 -43 43 -17 79 27
57 69 -10 19 -39 25 -67 13z"/>
<path d="M944 1095 c-48 -46 -94 -87 -102 -90 -7 -3 -12 -13 -10 -22 5 -24 37
-29 44 -6 4 10 48 60 98 111 115 117 90 124 -30 7z"/>
<path d="M928 983 l-197 -198 -2 -229 c-2 -230 1 -257 31 -221 10 12 10 19 2
27 -17 17 -17 414 1 425 35 24 390 393 377 393 -8 0 -104 -89 -212 -197z"/>
<path d="M1190 1167 c0 -7 -79 -91 -175 -187 l-175 -175 0 -152 c0 -86 -4
-154 -10 -158 -14 -9 0 -35 20 -35 20 0 34 26 20 35 -6 4 -10 70 -10 153 l0
147 175 175 c155 155 198 210 165 210 -5 0 -10 -6 -10 -13z"/>
<path d="M1240 1153 c0 -22 -31 -58 -155 -183 l-154 -155 -3 -338 c-3 -311 -2
-337 14 -337 22 0 33 19 19 33 -8 8 -11 106 -11 317 l0 305 155 155 c145 145
155 157 155 192 0 21 -4 38 -10 38 -5 0 -10 -12 -10 -27z"/>
<path d="M1290 1136 c0 -43 -3 -47 -129 -173 l-130 -129 -2 -260 c-2 -235 -1
-259 14 -262 21 -4 34 25 18 41 -7 7 -11 82 -11 237 l0 225 130 130 130 130 0
52 c0 29 -4 53 -10 53 -5 0 -10 -20 -10 -44z"/>
<path d="M1340 1118 l0 -63 -129 -130 -130 -130 -2 -95 c-3 -89 -2 -95 16 -95
19 0 20 6 17 90 l-4 90 130 131 130 132 -3 43 c-1 24 -3 54 -4 67 0 12 -5 22
-11 22 -6 0 -10 -27 -10 -62z"/>
<path d="M1396 1169 c-10 -29 -11 -349 -1 -352 27 -10 30 9 27 175 -3 156 -12
218 -26 177z"/>
<path d="M1450 932 c0 -180 -3 -251 -12 -260 -9 -9 -8 -16 5 -29 10 -10 20
-13 24 -8 12 14 4 545 -8 545 -5 0 -9 -100 -9 -248z"/>
<path d="M1500 886 c0 -161 -3 -308 -6 -325 -6 -27 -4 -31 14 -31 26 0 38 18
23 33 -8 8 -11 105 -11 314 0 195 -4 303 -10 303 -6 0 -10 -105 -10 -294z"/>
<path d="M1557 1173 c-3 -5 -7 -110 -8 -233 -2 -210 -1 -225 16 -225 17 0 18
14 16 220 -2 200 -8 263 -24 238z"/>
<path d="M1610 1064 c0 -75 -4 -124 -11 -131 -14 -14 -3 -33 19 -33 16 0 17
12 14 133 -5 169 -22 193 -22 31z"/>
<path d="M1660 1146 c0 -18 -3 -47 -6 -63 -5 -28 4 -40 126 -163 l132 -133 -4
-91 c-3 -85 -2 -91 17 -91 18 0 19 6 16 95 l-2 95 -130 130 -129 130 0 63 c0
35 -4 62 -10 62 -5 0 -10 -15 -10 -34z"/>
<path d="M1710 1127 l0 -52 130 -130 130 -130 0 -225 c0 -155 -4 -230 -11
-237 -16 -16 -3 -45 17 -41 15 3 16 30 15 263 l-2 260 -129 128 c-128 126
-130 129 -130 173 0 24 -4 44 -10 44 -5 0 -10 -24 -10 -53z"/>
<path d="M1760 1142 c0 -35 10 -47 155 -192 l155 -155 -3 -305 c-2 -168 -5
-314 -8 -325 -3 -14 2 -21 16 -23 20 -3 20 2 17 335 l-3 338 -154 155 c-124
125 -155 161 -155 183 0 15 -4 27 -10 27 -5 0 -10 -17 -10 -38z"/>
<path d="M1810 1162 c0 -9 79 -96 175 -192 l175 -175 0 -147 c0 -83 -4 -149
-10 -153 -14 -9 0 -35 20 -35 20 0 34 26 20 35 -6 4 -10 72 -10 158 l0 152
-175 175 c-96 96 -175 180 -175 187 0 7 -4 13 -10 13 -5 0 -10 -8 -10 -18z"/>
<path d="M1891 1154 c13 -14 104 -105 202 -202 l177 -176 0 -201 c0 -139 -4
-205 -12 -213 -8 -8 -8 -15 2 -27 30 -36 33 -9 31 221 l-2 229 -197 198 c-108
108 -203 197 -211 197 -10 0 -7 -8 10 -26z"/>
<path d="M2046 1088 c50 -51 94 -101 97 -110 8 -23 36 -23 44 -2 4 11 -1 22
-13 31 -10 7 -56 49 -102 93 -118 112 -138 102 -26 -12z"/>
</g>
</svg>
